<?xml version="1.0" encoding="UTF-8" standalone="no"?>
<svg
   xmlns:dc="http://purl.org/dc/elements/1.1/"
   xmlns:cc="http://creativecommons.org/ns#"
   xmlns:rdf="http://www.w3.org/1999/02/22-rdf-syntax-ns#"
   xmlns:svg="http://www.w3.org/2000/svg"
   xmlns="http://www.w3.org/2000/svg"
   xmlns:sodipodi="http://sodipodi.sourceforge.net/DTD/sodipodi-0.dtd"
   xmlns:inkscape="http://www.inkscape.org/namespaces/inkscape"
   data-name="Layer 1"
   width="200"
   height="174.20258"
   viewBox="0 0 200 174.20258"
   version="1.1"
   id="svg156"
   sodipodi:docname="contact.svg"
   inkscape:version="1.0.2-2 (e86c870879, 2021-01-15)">
  <metadata
     id="metadata162">
    <rdf:RDF>
      <cc:Work
         rdf:about="">
        <dc:format>image/svg+xml</dc:format>
        <dc:type
           rdf:resource="http://purl.org/dc/dcmitype/StillImage" />
        <dc:title></dc:title>
      </cc:Work>
    </rdf:RDF>
  </metadata>
  <defs
     id="defs160" />
  <sodipodi:namedview
     pagecolor="#ffffff"
     bordercolor="#666666"
     borderopacity="1"
     objecttolerance="10"
     gridtolerance="10"
     guidetolerance="10"
     inkscape:pageopacity="0"
     inkscape:pageshadow="2"
     inkscape:window-width="1920"
     inkscape:window-height="1027"
     id="namedview158"
     showgrid="false"
     fit-margin-top="0"
     fit-margin-left="0"
     fit-margin-right="0"
     fit-margin-bottom="0"
     inkscape:zoom="2"
     inkscape:cx="14.194664"
     inkscape:cy="93.709355"
     inkscape:window-x="-8"
     inkscape:window-y="-8"
     inkscape:window-maximized="1"
     inkscape:current-layer="svg156" />
  <g
     id="g1065"
     transform="matrix(0.23514528,0,0,0.23514528,8.5701333e-7,5.1846831e-6)">
    <path
       d="m 941.609,465.12478 a 354.2104,354.2104 0 0 1 -98.85,245.9 q -5.74494,6.015 -11.8,11.74 -9.225,8.775 -19.07,16.87 a 353.93418,353.93418 0 0 1 -217.58,80.69 q -3.97494,0.09 -7.98,0.09 c -63.43,0 -143.21,-33.87994 -215.61,-80.78 q -8.985,-5.82 -17.81,-11.91 -4.125,-2.82 -8.21,-5.72 a 730.42959,730.42959 0 0 1 -79.32,-64.8 514.11633,514.11633 0 0 1 -45.75,-48.92 c -55.63,-68.62006 -67.9,-130.45 11.41,-143.16 q 14.085,-2.25 27.34,-4.81 19.20008,-3.69 36.75,-7.97 23.64,-5.745 44.42005,-12.46 6.99,-2.25 13.66,-4.59 c 65.74,-23.09 109.74,-53.19995 139.69,-85.87 q 7.62,-8.295 14.05,-16.79 a 236.05512,236.05512 0 0 0 17.83,-27.12 254.89845,254.89845 0 0 0 18.41,-41.05 l 0.27,-0.78 c 23.83,-68.74 16.58,-132.5 42.87,-153.84 112.38,-91.23 252.29,38.69 317.96,191.9 q 4.965,11.58 9.34,23.3 1.965,5.23507 3.79,10.49 4.79992,13.69491 8.71,27.46 1.5,5.25 2.86005,10.49 c 0.97,3.77 1.9,7.53 2.76,11.29 6.3899,27.53 9.8599,54.68002 9.8599,80.35 z"
       transform="translate(-174.73099,-79.58524)"
       fill="#f2f2f2"
       id="path2" />
    <path
       d="m 594.309,820.3248 q -3.97494,0.09 -7.98,0.09 c -63.43,0 -143.21,-33.87994 -215.61,-80.78 q -8.985,-5.82 -17.81,-11.91 l 5.16,-31.4 156.21,-20.74 78.4,59.95 z"
       transform="translate(-174.73099,-79.58524)"
       fill="#2f2e41"
       id="path4" />
    <path
       d="m 601.82894,259.63486 h -22.26 a 2.601,2.601 0 0 0 -2.59985,2.59985 v 22.27 a 2.59264,2.59264 0 0 0 2.59985,2.59009 h 22.26 a 2.59918,2.59918 0 0 0 2.6001,-2.59009 v -22.27 a 2.60761,2.60761 0 0 0 -2.6001,-2.59985 z"
       transform="translate(-174.73099,-79.58524)"
       fill="#fff"
       id="path6" />
    <path
       d="m 601.82894,297.58481 h -22.26 a 2.60105,2.60105 0 0 0 -2.59985,2.6 v 22.27 a 2.59253,2.59253 0 0 0 2.59985,2.59 h 22.26 a 2.59907,2.59907 0 0 0 2.6001,-2.59 v -22.27 a 2.60763,2.60763 0 0 0 -2.6001,-2.6 z"
       transform="translate(-174.73099,-79.58524)"
       fill="#e6e6e6"
       id="path8" />
    <path
       d="m 601.82894,335.53476 h -22.26 a 2.60116,2.60116 0 0 0 -2.59985,2.6001 v 22.26 a 2.59464,2.59464 0 0 0 2.59985,2.59985 h 22.26 a 2.60116,2.60116 0 0 0 2.6001,-2.59985 v -22.26 a 2.60774,2.60774 0 0 0 -2.6001,-2.6001 z"
       transform="translate(-174.73099,-79.58524)"
       fill="#e6e6e6"
       id="path10" />
    <path
       d="m 604.389,375.62485 a 2.61714,2.61714 0 0 0 -2.56006,-2.14014 h -22.26 a 2.60124,2.60124 0 0 0 -2.59985,2.6001 v 22.26 a 2.59474,2.59474 0 0 0 2.59985,2.6 h 22.26 a 2.60126,2.60126 0 0 0 2.6001,-2.6 v -22.26 a 2.31271,2.31271 0 0 0 -0.04,-0.45996 z"
       transform="translate(-174.73099,-79.58524)"
       fill="#e6e6e6"
       id="path12" />
    <path
       d="m 602.839,411.63486 a 2.634,2.634 0 0 0 -1.01,-0.20008 h -22.26 a 2.59475,2.59475 0 0 0 -2.59985,2.6 v 22.26 a 2.58836,2.58836 0 0 0 2.59985,2.6001 h 22.26 a 2.60137,2.60137 0 0 0 2.6001,-2.6001 v -22.26 a 2.61575,2.61575 0 0 0 -1.5901,-2.39992 z"
       transform="translate(-174.73099,-79.58524)"
       fill="#e6e6e6"
       id="path14" />
    <path
       d="m 648.589,259.63486 h -22.26 a 2.601,2.601 0 0 0 -2.59985,2.59985 v 22.27 a 2.59264,2.59264 0 0 0 2.59985,2.59009 h 22.26 a 2.59918,2.59918 0 0 0 2.6001,-2.59009 v -22.27 a 2.60761,2.60761 0 0 0 -2.6001,-2.59985 z"
       transform="translate(-174.73099,-79.58524)"
       fill="#e6e6e6"
       id="path16" />
    <path
       d="m 648.589,297.58481 h -22.26 a 2.60105,2.60105 0 0 0 -2.59985,2.6 v 22.27 a 2.59253,2.59253 0 0 0 2.59985,2.59 h 22.26 a 2.59907,2.59907 0 0 0 2.6001,-2.59 v -22.27 a 2.60763,2.60763 0 0 0 -2.6001,-2.6 z"
       transform="translate(-174.73099,-79.58524)"
       fill="#007bff"
       id="path18" />
    <path
       d="m 648.589,335.53476 h -22.26 a 2.60116,2.60116 0 0 0 -2.59985,2.6001 v 22.26 a 2.59464,2.59464 0 0 0 2.59985,2.59985 h 22.26 a 2.60116,2.60116 0 0 0 2.6001,-2.59985 v -22.26 a 2.60774,2.60774 0 0 0 -2.6001,-2.6001 z"
       transform="translate(-174.73099,-79.58524)"
       fill="#007bff"
       id="path20" />
    <path
       d="m 648.589,373.48471 h -22.26 a 2.59261,2.59261 0 0 0 -2.46,1.78 2.47846,2.47846 0 0 0 -0.13989,0.82007 v 22.26 a 2.59474,2.59474 0 0 0 2.59985,2.6 h 22.26 a 2.60126,2.60126 0 0 0 2.6001,-2.6 v -22.26 a 2.60782,2.60782 0 0 0 -2.60006,-2.60007 z"
       transform="translate(-174.73099,-79.58524)"
       fill="#007bff"
       id="path22" />
    <path
       d="m 648.589,411.43478 h -22.26 a 2.59475,2.59475 0 0 0 -2.59985,2.6 v 22.26 a 2.59485,2.59485 0 0 0 2.59985,2.6001 h 22.26 a 2.60137,2.60137 0 0 0 2.6001,-2.6001 v -22.26 a 2.60127,2.60127 0 0 0 -2.6001,-2.6 z"
       transform="translate(-174.73099,-79.58524)"
       fill="#e6e6e6"
       id="path24" />
    <path
       d="m 695.349,259.63486 h -22.26 a 2.601,2.601 0 0 0 -2.59985,2.59985 v 22.27 a 2.59264,2.59264 0 0 0 2.59985,2.59009 h 22.26 a 2.59918,2.59918 0 0 0 2.6001,-2.59009 v -22.27 a 2.60761,2.60761 0 0 0 -2.6001,-2.59985 z"
       transform="translate(-174.73099,-79.58524)"
       fill="#007bff"
       id="path26" />
    <path
       d="m 695.349,297.58481 h -22.26 a 2.60105,2.60105 0 0 0 -2.59985,2.6 v 22.27 a 2.59253,2.59253 0 0 0 2.59985,2.59 h 22.26 a 2.59907,2.59907 0 0 0 2.6001,-2.59 v -22.27 a 2.60763,2.60763 0 0 0 -2.6001,-2.6 z"
       transform="translate(-174.73099,-79.58524)"
       fill="#007bff"
       id="path28" />
    <path
       d="m 695.349,335.53476 h -22.26 a 2.60116,2.60116 0 0 0 -2.59985,2.6001 v 22.26 a 2.59464,2.59464 0 0 0 2.59985,2.59985 h 22.26 a 2.60116,2.60116 0 0 0 2.6001,-2.59985 v -22.26 a 2.60774,2.60774 0 0 0 -2.6001,-2.6001 z"
       transform="translate(-174.73099,-79.58524)"
       fill="#e6e6e6"
       id="path30" />
    <path
       d="m 695.349,373.48471 h -22.26 a 2.60124,2.60124 0 0 0 -2.59985,2.6001 v 22.26 a 2.59474,2.59474 0 0 0 2.59985,2.6 h 22.26 a 2.60126,2.60126 0 0 0 2.6001,-2.6 v -22.26 a 2.60782,2.60782 0 0 0 -2.6001,-2.6001 z"
       transform="translate(-174.73099,-79.58524)"
       fill="#007bff"
       id="path32" />
    <path
       d="m 695.349,411.43478 h -22.26 a 2.59475,2.59475 0 0 0 -2.59985,2.6 v 22.26 a 2.59485,2.59485 0 0 0 2.59985,2.6001 h 22.26 a 2.60137,2.60137 0 0 0 2.6001,-2.6001 v -22.26 a 2.60127,2.60127 0 0 0 -2.6001,-2.6 z"
       transform="translate(-174.73099,-79.58524)"
       fill="#007bff"
       id="path34" />
    <path
       d="m 742.109,259.63486 h -22.26 a 2.60113,2.60113 0 0 0 -2.6,2.59985 v 22.27 a 2.59275,2.59275 0 0 0 2.6,2.59009 h 22.26 a 2.59918,2.59918 0 0 0 2.6001,-2.59009 v -22.27 a 2.60761,2.60761 0 0 0 -2.6001,-2.59985 z"
       transform="translate(-174.73099,-79.58524)"
       fill="#007bff"
       id="path36" />
    <path
       d="m 742.109,297.58481 h -22.26 a 2.60116,2.60116 0 0 0 -2.6,2.6 v 22.27 a 2.59264,2.59264 0 0 0 2.6,2.59 h 22.26 a 2.59907,2.59907 0 0 0 2.6001,-2.59 v -22.27 a 2.60763,2.60763 0 0 0 -2.6001,-2.6 z"
       transform="translate(-174.73099,-79.58524)"
       fill="#fff"
       id="path38" />
    <path
       d="m 742.109,335.53476 h -22.26 a 2.60126,2.60126 0 0 0 -2.6,2.6001 v 22.26 a 2.59474,2.59474 0 0 0 2.6,2.59985 h 22.26 a 2.60116,2.60116 0 0 0 2.6001,-2.59985 v -22.26 a 2.60774,2.60774 0 0 0 -2.6001,-2.6001 z"
       transform="translate(-174.73099,-79.58524)"
       fill="#fff"
       id="path40" />
    <path
       d="m 742.109,373.48471 h -22.26 a 2.60134,2.60134 0 0 0 -2.6,2.6001 v 22.26 a 2.59485,2.59485 0 0 0 2.6,2.6 h 22.26 a 2.60126,2.60126 0 0 0 2.6001,-2.6 v -22.26 a 2.60782,2.60782 0 0 0 -2.6001,-2.6001 z"
       transform="translate(-174.73099,-79.58524)"
       fill="#e6e6e6"
       id="path42" />
    <path
       d="m 742.109,411.43478 h -22.26 a 2.59485,2.59485 0 0 0 -2.6,2.6 v 22.26 a 2.595,2.595 0 0 0 2.6,2.6001 h 22.26 a 2.60137,2.60137 0 0 0 2.6001,-2.6001 v -22.26 a 2.60127,2.60127 0 0 0 -2.6001,-2.6 z"
       transform="translate(-174.73099,-79.58524)"
       fill="#007bff"
       id="path44" />
    <path
       d="m 788.869,259.63486 h -22.27 a 2.599,2.599 0 0 0 -2.59,2.59985 v 22.27 a 2.59059,2.59059 0 0 0 2.59,2.59009 h 22.27 a 2.59918,2.59918 0 0 0 2.6001,-2.59009 v -22.27 a 2.60761,2.60761 0 0 0 -2.6001,-2.59985 z"
       transform="translate(-174.73099,-79.58524)"
       fill="#fff"
       id="path46" />
    <path
       d="m 788.869,297.58481 h -22.27 a 2.599,2.599 0 0 0 -2.59,2.6 v 22.27 a 2.59048,2.59048 0 0 0 2.59,2.59 h 22.27 a 2.59907,2.59907 0 0 0 2.6001,-2.59 v -22.27 a 2.60763,2.60763 0 0 0 -2.6001,-2.6 z"
       transform="translate(-174.73099,-79.58524)"
       fill="#fff"
       id="path48" />
    <path
       d="m 788.869,335.53476 h -22.27 a 2.59915,2.59915 0 0 0 -2.59,2.6001 v 22.26 a 2.59261,2.59261 0 0 0 2.59,2.59985 h 22.27 a 2.60116,2.60116 0 0 0 2.6001,-2.59985 v -22.26 a 2.60774,2.60774 0 0 0 -2.6001,-2.6001 z"
       transform="translate(-174.73099,-79.58524)"
       fill="#fff"
       id="path50" />
    <path
       d="m 788.869,373.48471 h -22.27 a 2.59923,2.59923 0 0 0 -2.59,2.6001 v 22.26 a 2.59271,2.59271 0 0 0 2.59,2.6 h 22.27 a 2.60126,2.60126 0 0 0 2.6001,-2.6 v -22.26 a 2.60782,2.60782 0 0 0 -2.6001,-2.6001 z"
       transform="translate(-174.73099,-79.58524)"
       fill="#007bff"
       id="path52" />
    <path
       d="m 788.869,411.43478 h -22.27 a 2.59272,2.59272 0 0 0 -2.59,2.6 v 22.26 a 2.59282,2.59282 0 0 0 2.59,2.6001 h 22.27 a 2.60137,2.60137 0 0 0 2.6001,-2.6001 v -22.26 a 2.60127,2.60127 0 0 0 -2.6001,-2.6 z"
       transform="translate(-174.73099,-79.58524)"
       fill="#e6e6e6"
       id="path54" />
    <path
       d="m 835.629,259.63486 h -22.27 a 2.599,2.599 0 0 0 -2.59,2.59985 v 22.27 a 2.59059,2.59059 0 0 0 2.59,2.59009 h 22.27 a 2.59927,2.59927 0 0 0 2.6001,-2.59009 v -22.27 a 2.60769,2.60769 0 0 0 -2.6001,-2.59985 z"
       transform="translate(-174.73099,-79.58524)"
       fill="#fff"
       id="path56" />
    <path
       d="m 835.629,297.58481 h -22.27 a 2.599,2.599 0 0 0 -2.59,2.6 v 22.27 a 2.59048,2.59048 0 0 0 2.59,2.59 h 22.27 a 2.59916,2.59916 0 0 0 2.6001,-2.59 v -22.27 a 2.60772,2.60772 0 0 0 -2.6001,-2.6 z"
       transform="translate(-174.73099,-79.58524)"
       fill="#fff"
       id="path58" />
    <path
       d="m 835.629,335.53476 h -22.27 a 2.59915,2.59915 0 0 0 -2.59,2.6001 v 22.26 a 2.59261,2.59261 0 0 0 2.59,2.59985 h 22.27 a 2.60124,2.60124 0 0 0 2.6001,-2.59985 v -22.26 a 2.60782,2.60782 0 0 0 -2.6001,-2.6001 z"
       transform="translate(-174.73099,-79.58524)"
       fill="#007bff"
       id="path60" />
    <path
       d="m 835.629,373.48471 h -22.27 a 2.59923,2.59923 0 0 0 -2.59,2.6001 v 22.26 a 2.59271,2.59271 0 0 0 2.59,2.6 h 22.27 a 2.60134,2.60134 0 0 0 2.6001,-2.6 v -22.26 a 2.60791,2.60791 0 0 0 -2.6001,-2.6001 z"
       transform="translate(-174.73099,-79.58524)"
       fill="#e6e6e6"
       id="path62" />
    <path
       d="m 835.629,411.43478 h -22.27 a 2.59272,2.59272 0 0 0 -2.59,2.6 v 22.26 a 2.59282,2.59282 0 0 0 2.59,2.6001 h 22.27 a 2.60146,2.60146 0 0 0 2.6001,-2.6001 v -22.26 a 2.60135,2.60135 0 0 0 -2.6001,-2.6 z"
       transform="translate(-174.73099,-79.58524)"
       fill="#fff"
       id="path64" />
    <path
       d="m 882.389,259.63486 h -22.27 a 2.599,2.599 0 0 0 -2.59,2.59985 v 22.27 a 2.59059,2.59059 0 0 0 2.59,2.59009 h 22.27 a 2.59927,2.59927 0 0 0 2.6001,-2.59009 v -22.27 a 2.60769,2.60769 0 0 0 -2.6001,-2.59985 z"
       transform="translate(-174.73099,-79.58524)"
       fill="#007bff"
       id="path66" />
    <path
       d="m 882.389,297.58481 h -22.27 a 2.599,2.599 0 0 0 -2.59,2.6 v 22.27 a 2.59048,2.59048 0 0 0 2.59,2.59 h 22.27 a 2.59916,2.59916 0 0 0 2.6001,-2.59 v -22.27 a 2.60772,2.60772 0 0 0 -2.6001,-2.6 z"
       transform="translate(-174.73099,-79.58524)"
       fill="#007bff"
       id="path68" />
    <path
       d="m 882.389,335.53476 h -22.27 a 2.59915,2.59915 0 0 0 -2.59,2.6001 v 22.26 a 2.59261,2.59261 0 0 0 2.59,2.59985 h 22.27 a 2.60124,2.60124 0 0 0 2.6001,-2.59985 v -22.26 a 2.60782,2.60782 0 0 0 -2.6001,-2.6001 z"
       transform="translate(-174.73099,-79.58524)"
       fill="#e6e6e6"
       id="path70" />
    <path
       d="m 882.389,373.48471 h -22.27 a 2.59923,2.59923 0 0 0 -2.59,2.6001 v 22.26 a 2.59271,2.59271 0 0 0 2.59,2.6 h 22.27 a 2.60134,2.60134 0 0 0 2.6001,-2.6 v -22.26 a 2.60791,2.60791 0 0 0 -2.6001,-2.6001 z"
       transform="translate(-174.73099,-79.58524)"
       fill="#fff"
       id="path72" />
    <path
       d="m 882.389,411.43478 h -22.27 a 2.59272,2.59272 0 0 0 -2.59,2.6 v 22.26 a 2.59282,2.59282 0 0 0 2.59,2.6001 h 22.27 a 2.60146,2.60146 0 0 0 2.6001,-2.6001 v -22.26 a 2.60135,2.60135 0 0 0 -2.6001,-2.6 z"
       transform="translate(-174.73099,-79.58524)"
       fill="#007bff"
       id="path74" />
    <path
       d="m 929.149,259.63486 h -22.27 a 2.599,2.599 0 0 0 -2.59,2.59985 v 22.27 a 2.59059,2.59059 0 0 0 2.59,2.59009 h 22.27 a 2.59916,2.59916 0 0 0 2.6,-2.59009 v -22.27 a 2.60759,2.60759 0 0 0 -2.6,-2.59985 z"
       transform="translate(-174.73099,-79.58524)"
       fill="#007bff"
       id="path76" />
    <path
       d="m 929.149,297.58481 h -22.27 a 2.599,2.599 0 0 0 -2.59,2.6 v 22.27 a 2.59048,2.59048 0 0 0 2.59,2.59 h 22.27 a 2.59906,2.59906 0 0 0 2.6,-2.59 v -22.27 a 2.60761,2.60761 0 0 0 -2.6,-2.6 z"
       transform="translate(-174.73099,-79.58524)"
       fill="#007bff"
       id="path78" />
    <path
       d="m 929.149,335.53476 h -22.27 a 2.59915,2.59915 0 0 0 -2.59,2.6001 v 22.26 a 2.59261,2.59261 0 0 0 2.59,2.59985 h 22.27 a 2.60114,2.60114 0 0 0 2.6,-2.59985 v -22.26 a 2.60772,2.60772 0 0 0 -2.6,-2.6001 z"
       transform="translate(-174.73099,-79.58524)"
       fill="#e6e6e6"
       id="path80" />
    <path
       d="m 929.149,373.48471 h -22.27 a 2.59923,2.59923 0 0 0 -2.59,2.6001 v 22.26 a 2.59271,2.59271 0 0 0 2.59,2.6 h 22.27 a 2.60124,2.60124 0 0 0 2.6,-2.6 v -22.26 a 2.6078,2.6078 0 0 0 -2.6,-2.6001 z"
       transform="translate(-174.73099,-79.58524)"
       fill="#007bff"
       id="path82" />
    <path
       d="m 929.149,411.43478 h -22.27 a 2.59272,2.59272 0 0 0 -2.59,2.6 v 22.26 a 2.59282,2.59282 0 0 0 2.59,2.6001 h 22.27 a 2.60135,2.60135 0 0 0 2.6,-2.6001 v -22.26 a 2.60125,2.60125 0 0 0 -2.6,-2.6 z"
       transform="translate(-174.73099,-79.58524)"
       fill="#007bff"
       id="path84" />
    <path
       d="m 975.909,259.63486 h -22.27 a 2.599,2.599 0 0 0 -2.59,2.59985 v 22.27 a 2.59059,2.59059 0 0 0 2.59,2.59009 h 22.27 a 2.59916,2.59916 0 0 0 2.6,-2.59009 v -22.27 a 2.60759,2.60759 0 0 0 -2.6,-2.59985 z"
       transform="translate(-174.73099,-79.58524)"
       fill="#e6e6e6"
       id="path86" />
    <path
       d="m 975.909,297.58481 h -22.27 a 2.599,2.599 0 0 0 -2.59,2.6 v 22.27 a 2.59048,2.59048 0 0 0 2.59,2.59 h 22.27 a 2.59906,2.59906 0 0 0 2.6,-2.59 v -22.27 a 2.60761,2.60761 0 0 0 -2.6,-2.6 z"
       transform="translate(-174.73099,-79.58524)"
       fill="#007bff"
       id="path88" />
    <path
       d="m 975.909,335.53476 h -22.27 a 2.59915,2.59915 0 0 0 -2.59,2.6001 v 22.26 a 2.59261,2.59261 0 0 0 2.59,2.59985 h 22.27 a 2.60114,2.60114 0 0 0 2.6,-2.59985 v -22.26 a 2.60772,2.60772 0 0 0 -2.6,-2.6001 z"
       transform="translate(-174.73099,-79.58524)"
       fill="#007bff"
       id="path90" />
    <path
       d="m 975.909,373.48471 h -22.27 a 2.59923,2.59923 0 0 0 -2.59,2.6001 v 22.26 a 2.59271,2.59271 0 0 0 2.59,2.6 h 22.27 a 2.60124,2.60124 0 0 0 2.6,-2.6 v -22.26 a 2.6078,2.6078 0 0 0 -2.6,-2.6001 z"
       transform="translate(-174.73099,-79.58524)"
       fill="#007bff"
       id="path92" />
    <path
       d="m 975.909,411.43478 h -22.27 a 2.59272,2.59272 0 0 0 -2.59,2.6 v 22.26 a 2.59282,2.59282 0 0 0 2.59,2.6001 h 22.27 a 2.60135,2.60135 0 0 0 2.6,-2.6001 v -22.26 a 2.60125,2.60125 0 0 0 -2.6,-2.6 z"
       transform="translate(-174.73099,-79.58524)"
       fill="#e6e6e6"
       id="path94" />
    <path
       d="m 1022.669,259.63486 h -22.27 a 2.59913,2.59913 0 0 0 -2.59009,2.59985 v 22.27 a 2.5907,2.5907 0 0 0 2.59009,2.59009 h 22.27 a 2.59916,2.59916 0 0 0 2.6,-2.59009 v -22.27 a 2.60759,2.60759 0 0 0 -2.6,-2.59985 z"
       transform="translate(-174.73099,-79.58524)"
       fill="#e6e6e6"
       id="path96" />
    <path
       d="m 1022.669,297.58481 h -22.27 a 2.59916,2.59916 0 0 0 -2.59009,2.6 v 22.27 a 2.59059,2.59059 0 0 0 2.59009,2.59 h 22.27 a 2.59906,2.59906 0 0 0 2.6,-2.59 v -22.27 a 2.60761,2.60761 0 0 0 -2.6,-2.6 z"
       transform="translate(-174.73099,-79.58524)"
       fill="#e6e6e6"
       id="path98" />
    <path
       d="m 1022.669,335.53476 h -22.27 a 2.59926,2.59926 0 0 0 -2.59009,2.6001 v 22.26 a 2.59272,2.59272 0 0 0 2.59009,2.59985 h 22.27 a 2.60114,2.60114 0 0 0 2.6,-2.59985 v -22.26 a 2.60772,2.60772 0 0 0 -2.6,-2.6001 z"
       transform="translate(-174.73099,-79.58524)"
       fill="#007bff"
       id="path100" />
    <path
       d="m 1022.669,373.48471 h -22.27 a 2.59934,2.59934 0 0 0 -2.59009,2.6001 v 22.26 a 2.59282,2.59282 0 0 0 2.59009,2.6 h 22.27 a 2.60124,2.60124 0 0 0 2.6,-2.6 v -22.26 a 2.6078,2.6078 0 0 0 -2.6,-2.6001 z"
       transform="translate(-174.73099,-79.58524)"
       fill="#e6e6e6"
       id="path102" />
    <path
       d="m 1022.669,411.43478 h -22.27 a 2.59283,2.59283 0 0 0 -2.59009,2.6 v 22.26 a 2.59293,2.59293 0 0 0 2.59009,2.6001 h 22.27 a 2.60135,2.60135 0 0 0 2.6,-2.6001 v -22.26 a 2.60125,2.60125 0 0 0 -2.6,-2.6 z"
       transform="translate(-174.73099,-79.58524)"
       fill="#e6e6e6"
       id="path104" />
    <polygon
       points="336.095,660.051 335.475,660.051 336.005,659.981 "
       fill="#2f2e41"
       id="polygon106" />
    <circle
       id="b6132315-04e2-4cdb-a713-107c9cd58b0b"
       data-name="ab6171fa-7d69-4734-b81c-8dff60f9761b"
       cx="282.81439"
       cy="176.73277"
       r="68.321854"
       fill="#ffb6b6" />
    <path
       id="f4304bdd-ba2d-4fff-b404-410205410c5d-526"
       data-name="bf427902-b9bf-4946-b5d7-5c1c7e04535e"
       d="m 517.37694,206.2256 c 0,0 17.8694,-34.16091 -21.44383,-37.26649 0,0 -33.51489,-30.40228 -67.6758,-5.558 0,0 -18.63322,0 -28.82254,21.08567 0,0 -14.655,-5.558 -17.87551,9.31661 0,0 -10.72349,31.05546 0,59.00533 10.72348,27.94992 14.28537,31.05537 14.28537,31.05537 0,0 -17.6209,-58.59838 25.26991,-61.704 42.89081,-3.10562 90.8867,-29.90942 94.46114,4.25144 3.57444,34.16086 8.95329,42.57784 8.95329,42.57784 0,0 33.94958,-48.78877 -7.15203,-62.76377 z"
       transform="translate(-174.73099,-79.58524)"
       fill="#2f2e41" />
    <path
       d="m 634.279,424.69479 -0.2201,1.16 -2.47,13.04 -17.06994,90.2 -1.01,5.31006 -2.12,11.23 -2.8999,15.31994 -6.43018,33.95008 -1.83984,9.73 -0.69006,3.6499 -0.24,1.28 -1.91,10.07007 -0.58,3.03991 -4.66,34.53 -4.07007,30.09 13.62012,13.62 -8.12012,8.12 -5.32983,30.53 0.01,0.0701 h -217.53 q -13.20008,-8.55012 -26.02,-17.63013 l 1.79,-13.3999 c 0,0 6.15991,-23.93006 3.56982,-26.79 -2.57983,-2.86 -8.24,-7.97 -8.24,-7.97 l 7.13013,-16.64 0.99,-2.30993 -1.66,-34.43006 -0.0399,-0.83 -0.55,-11.3501 -0.0701,-1.46 -0.11,-2.18994 -2.11,-43.68006 -0.04,-0.72009 -0.63989,-13.24 -0.6001,-12.58984 -0.26,-5.31006 -2.56994,-53.13 -1.74,-36.07995 -1.52,-31.41 6.11,-2.06994 65.3501,-22.21009 27.06982,-35.19006 56.34009,0.42 27.58008,0.21009 46.0199,42.67993 10.47009,5 0.08,0.04 7.50988,3.59 19.04,9.09 20.13013,9.62012 10.32983,4.92993 z"
       transform="translate(-174.73099,-79.58524)"
       fill="#cacaca"
       id="path110" />
    <path
       d="m 443.83985,637.13612 a 30.28588,30.28588 0 0 1 -40.66389,-22.43 l -106.55882,-15.11792 37.0428,-41.902 95.511,20.7803 a 30.45,30.45 0 0 1 14.66891,58.66964 z"
       transform="translate(-174.73099,-79.58524)"
       fill="#ffb6b6"
       id="path112" />
    <path
       d="m 396.32894,560.9548 a 13.52249,13.52249 0 0 0 -7.88989,-4.87 l -43.72,-9.09009 -4.49,-0.92993 a 18.93267,18.93267 0 0 1 -12.53009,-9.07007 19.16055,19.16055 0 0 1 -2.45,-7.8999 18.89456,18.89456 0 0 1 0.89,-7.48 l 15.15,-45.65 9.82995,-29.62 a 41.79215,41.79215 0 0 0 2.09009,-11.05 43.34878,43.34878 0 0 0 -9.07007,-28.88989 42.69326,42.69326 0 0 0 -49.01,-13.64014 c -0.25,0.0901 -0.51,0.19006 -0.76,0.29 a 42.58322,42.58322 0 0 0 -25.31,28.41 l -10.68,38.85 -22.03,80.09009 a 57.7664,57.7664 0 0 0 48.96,72.67993 l 62.97,7.38 29.14,3.42 a 13.49651,13.49651 0 0 0 14.84,-10.73 4.89544,4.89544 0 0 0 0.11,-0.55005 l 0.7,-4.32007 5.93006,-36.37988 0.0599,-0.37012 a 13.47483,13.47483 0 0 0 -2.72998,-10.57988 z"
       transform="translate(-174.73099,-79.58524)"
       fill="#cacaca"
       id="path114" />
    <path
       d="m 511.71356,638.30236 a 30.28592,30.28592 0 0 0 37.09449,-27.9402 l 103.362,-29.99367 -42.58155,-36.25956 -91.62614,34.04148 a 30.45,30.45 0 0 0 -6.2488,60.152 z"
       transform="translate(-174.73099,-79.58524)"
       fill="#ffb6b6"
       id="path116" />
    <path
       d="M 703.4891,513.27475 654.32894,400.13486 a 42.819,42.819 0 0 0 -20.27,-21.3501 43.35617,43.35617 0 0 0 -8.7799,-3.2 c -0.4701,-0.12 -0.94007,-0.23 -1.41,-0.32007 a 42.1319,42.1319 0 0 0 -19.48,0.36011 42.81378,42.81378 0 0 0 -27.34,21.73 1.00376,1.00376 0 0 0 -0.08,0.13989 43.10025,43.10025 0 0 0 -0.37012,38.8501 l 0.61011,1.22 34.74,69.77 a 18.90046,18.90046 0 0 1 -10.5,26.18994 l -2.44006,0.88013 -43.88,15.84985 a 13.4969,13.4969 0 0 0 -8.33,16.79 l 0.11,0.3501 12.3,39.35986 c 0.0599,0.18005 0.11987,0.36011 0.18994,0.54 a 7.0543,7.0543 0 0 0 0.4,0.99 13.48177,13.48177 0 0 0 15.80993,7.53 l 23.68006,-6.25 4.82995,-1.28 61.15,-16.1499 a 57.76037,57.76037 0 0 0 38.22009,-78.86011 z"
       transform="translate(-174.73099,-79.58524)"
       fill="#cacaca"
       id="path118" />
    <path
       d="m 219.629,608.28482 a 514.11633,514.11633 0 0 0 45.75,48.92 h 451.97 a 16.44588,16.44588 0 0 1 16.42,16.43 l 0.65,114.53 a 355.4301,355.4301 0 0 0 77.47,-48.53 q 9.84,-8.085 19.07,-16.87 6.045,-5.73 11.8,-11.74 a 355.62853,355.62853 0 0 0 68.82,-102.74 z"
       transform="translate(-174.73099,-79.58524)"
       fill="#3f3d56"
       id="path120" />
    <path
       d="m 842.759,711.02475 q -5.74494,6.015 -11.79993,11.74 H 734.749 v -11.74 z"
       transform="translate(-174.73099,-79.58524)"
       fill="#fff"
       id="path122" />
    <path
       d="m 633.379,335.53476 a 5.53766,5.53766 0 0 0 -4.87,-2.8999 h -327.84 a 5.55451,5.55451 0 0 0 -5.54,5.54992 v 196.2201 h 338.92992 v -196.2201 a 5.38548,5.38548 0 0 0 -0.67992,-2.65002 z"
       transform="translate(-174.73099,-79.58524)"
       fill="#3f3d56"
       id="path124" />
    <path
       d="m 294.83213,529.09239 v 24.21381 a 7.64384,7.64384 0 0 0 7.64382,7.64392 h 125.09671 v 47.78659 h -1.66185 a 0.9929,0.9929 0 0 0 -0.993,0.99292 v 3.32374 a 0.9929,0.9929 0 0 0 0.993,0.993 h 77.6584 a 0.99291,0.99291 0 0 0 0.993,-0.993 v -3.32374 a 0.9929,0.9929 0 0 0 -0.993,-0.99292 h -1.66185 v -47.78659 h 125.09671 a 7.64384,7.64384 0 0 0 7.64382,-7.64392 v -24.21381 z"
       transform="translate(-174.73099,-79.58524)"
       fill="#3f3d56"
       id="path126" />
    <circle
       cx="285.90292"
       cy="348.70374"
       r="31.306419"
       fill="#007bff"
       id="circle128" />
    <path
       d="m 540.399,252.58481 h -5 c 0,-37.8 -37.41,-62.57 -75.15,-62.59 a 82.38227,82.38227 0 0 0 -16.35,1.59 c -6.06,1.21 -12.35,2.66 -18.53,4.55 -24.37,7.47 -46.97,21.91 -46.97,56.45 a 78.591,78.591 0 0 0 2.54,19.88 l -4.84,1.26 a 83.87572,83.87572 0 0 1 -2.7,-21.14 c 0,-30.18 12.39,-50.91 33.79,-63.27 11.25,-6.5 24.98,-10.69 40.71,-12.73 a 97.13079,97.13079 0 0 1 19.75,-0.6 c 43.4,3.11996 72.75,36.39998 72.75,76.6 z"
       transform="translate(-174.73099,-79.58524)"
       fill="#007bff"
       id="path130" />
    <path
       d="m 548.729,255.35477 -1.97,-14.56 a 15.71013,15.71013 0 0 0 -5,-9.56 15.81566,15.81566 0 0 0 -13.25,-4 l -3.13,0.43 a 6.52426,6.52426 0 0 0 -4.35,2.53 6.548,6.548 0 0 0 -1.29,4.87 l 4.55,33.54 a 6.57712,6.57712 0 0 0 5.3,5.57 6.15442,6.15442 0 0 0 1.22,0.12 6.49883,6.49883 0 0 0 0.88,-0.06 l 3.5,-0.47 a 15.79135,15.79135 0 0 0 10.74,-6.43 c 0.27,-0.38 0.53,-0.77 0.77,-1.17005 a 16.7484,16.7484 0 0 0 2.03,-10.80995 z"
       transform="translate(-174.73099,-79.58524)"
       fill="#007bff"
       id="path132" />
    <path
       d="m 523.359,228.27481 a 6.4317,6.4317 0 0 0 -2.33,1.92 6.548,6.548 0 0 0 -1.29,4.87 l 4.55,33.54 a 6.57712,6.57712 0 0 0 5.3,5.57 z"
       transform="translate(-174.73099,-79.58524)"
       fill="#fff"
       id="path134" />
    <path
       d="m 548.729,255.35477 -1.97,-14.56 a 15.71013,15.71013 0 0 0 -5,-9.56 l 4.53,33.37 a 6.17592,6.17592 0 0 0 0.41,1.56 16.7484,16.7484 0 0 0 2.03,-10.81 z"
       transform="translate(-174.73099,-79.58524)"
       fill="#3f3d56"
       id="path136" />
    <ellipse
       cx="532.21832"
       cy="258.909"
       rx="2.5"
       ry="7"
       transform="rotate(-7.72549,-144.4933,1513.0377)"
       fill="#3f3d56"
       id="ellipse138" />
    <ellipse
       cx="529.21832"
       cy="240.90901"
       rx="2.5"
       ry="7"
       transform="rotate(-7.72549,-147.49324,1495.0377)"
       fill="#3f3d56"
       id="ellipse140" />
    <ellipse
       cx="548.21832"
       cy="247.90901"
       rx="2.5"
       ry="7"
       transform="rotate(-7.72549,-128.49323,1502.0377)"
       fill="#3f3d56"
       id="ellipse142" />
    <path
       d="m 460.249,189.99478 a 82.38227,82.38227 0 0 0 -16.35,1.59 c -6.06,1.21 -12.35,2.66 -18.53,4.55 -9.65,-0.47 -16.75,-2.97 -18.18,-6.82 11.25,-6.5 24.98,-10.69 40.71,-12.73 a 97.13079,97.13079 0 0 1 19.75,-0.6 5.727,5.727 0 0 1 2.72,3.82 c 0.47,3.48004 -3.5,7.17999 -10.12,10.19 z"
       transform="translate(-174.73099,-79.58524)"
       fill="#3f3d56"
       id="path144" />
    <path
       d="m 396.409,287.28482 -7.7,-32.01 a 6.02367,6.02367 0 0 0 -4.88,-4.55 6.73326,6.73326 0 0 0 -1,-0.08 6.02576,6.02576 0 0 0 -1.4,0.17 l -2.98,0.72 a 14.904,14.904 0 0 0 -10.99,17.96 l 3.45,14.36 a 15.84509,15.84509 0 0 0 5.34,8.62005 14.045,14.045 0 0 0 1.36,0.97 14.80921,14.80921 0 0 0 11.37,1.84 l 2.97,-0.72 a 5.84014,5.84014 0 0 0 2.17,-1.01 5.99327,5.99327 0 0 0 2.29,-6.27005 z"
       transform="translate(-174.73099,-79.58524)"
       fill="#007bff"
       id="path146" />
    <ellipse
       cx="378.62897"
       cy="274.52322"
       rx="2.5"
       ry="7"
       transform="rotate(-13.53051,-44.177403,971.19806)"
       fill="#3f3d56"
       id="ellipse148" />
    <ellipse
       cx="368.62897"
       cy="277.52322"
       rx="2.5"
       ry="7"
       transform="rotate(-13.53051,-54.177411,974.19804)"
       fill="#3f3d56"
       id="ellipse150" />
    <path
       d="m 396.899,287.16476 -7.7,-32.01 a 6.53174,6.53174 0 0 0 -5.29,-4.92 l 10.51,43.72 a 6.5111,6.5111 0 0 0 2.48,-6.79 z"
       transform="translate(-174.73099,-79.58524)"
       fill="#fff"
       id="path152" />
    <path
       d="m 369.199,263.15481 a 6.476,6.476 0 0 0 -1.17,-2.45 14.72545,14.72545 0 0 0 -0.57,8.79 l 3.45,14.36 a 15.84509,15.84509 0 0 0 5.34,8.62005 z"
       transform="translate(-174.73099,-79.58524)"
       fill="#3f3d56"
       id="path154" />
  </g>
</svg>
